<svg width="19" height="19" viewBox="0 0 19 19" fill="none" xmlns="http://www.w3.org/2000/svg">
<path d="M16.1003 15.6756C17.7253 13.9437 18.62 11.6928 18.62 9.31C18.62 6.85096 17.6602 4.61321 16.0973 2.94736L16.7324 2.31225C16.8499 2.36871 16.9797 2.40258 17.1184 2.40258C17.6151 2.40258 18.0194 1.99829 18.0194 1.50161C18.0194 1.00494 17.6151 0.600645 17.1184 0.600645C16.6217 0.600645 16.2174 1.00494 16.2174 1.50161C16.2174 1.64034 16.2513 1.77011 16.3078 1.88757L15.6726 2.52268C14.0068 0.959771 11.769 0 9.31 0C7.50117 0 5.75232 0.520725 4.24352 1.50161H1.20129C0.538762 1.50161 0 2.04038 0 2.7029V15.9171C0 16.5796 0.538762 17.1184 1.20129 17.1184H4.23971C5.7488 18.1004 7.50147 18.62 9.31 18.62C11.0979 18.62 12.8265 18.11 14.3235 17.1508L15.4558 18.283C15.6732 18.5005 15.9618 18.62 16.2687 18.62C16.9031 18.62 17.4187 18.1044 17.4187 17.47C17.4187 17.1631 17.2992 16.8742 17.0817 16.6571L16.1003 15.6756ZM17.1184 1.20129C17.2838 1.20129 17.4187 1.3362 17.4187 1.50161C17.4187 1.66702 17.2838 1.80194 17.1184 1.80194C16.953 1.80194 16.8181 1.66702 16.8181 1.50161C16.8181 1.3362 16.953 1.20129 17.1184 1.20129ZM9.31 0.600645C11.6033 0.600645 13.6911 1.49325 15.2483 2.94706L14.5014 3.69391C14.3837 3.63775 14.2539 3.60387 14.1152 3.60387C13.9203 3.60387 13.7409 3.66751 13.5936 3.77295L11.9768 2.64131C11.9979 2.56477 12.0129 2.48573 12.0129 2.40258C12.0129 1.9059 11.6086 1.50161 11.1119 1.50161C10.6153 1.50161 10.211 1.9059 10.211 2.40258C10.211 2.89926 10.6153 3.30355 11.1119 3.30355C11.3068 3.30355 11.4862 3.23991 11.6335 3.13447L13.2503 4.26611C13.2292 4.34265 13.2142 4.42169 13.2142 4.50484C13.2142 5.00151 13.6185 5.40581 14.1152 5.40581C14.6118 5.40581 15.0161 5.00151 15.0161 4.50484C15.0161 4.36612 14.9823 4.23634 14.9258 4.11888L15.6726 3.37203C17.1267 4.92893 18.0194 7.01667 18.0194 9.31C18.0194 11.5324 17.1872 13.6326 15.6753 15.2506L13.7175 13.2929C14.1083 12.6484 14.351 11.9069 14.4002 11.1119H17.4187V10.5113H16.8181V5.70613H15.0161V10.5113H14.4155V7.50806H12.6135V10.5113H12.0129V5.70613H10.211V6.04824C10.0118 6.02361 9.81152 6.00645 9.61032 6.00645V2.7029C9.61032 2.04038 9.07156 1.50161 8.40903 1.50161H5.45801C6.65006 0.912406 7.96148 0.600645 9.31 0.600645ZM14.4155 4.50484C14.4155 4.67025 14.2806 4.80516 14.1152 4.80516C13.9497 4.80516 13.8148 4.67025 13.8148 4.50484C13.8148 4.33943 13.9497 4.20452 14.1152 4.20452C14.2806 4.20452 14.4155 4.33943 14.4155 4.50484ZM11.4123 2.40258C11.4123 2.56799 11.2773 2.7029 11.1119 2.7029C10.9465 2.7029 10.8116 2.56799 10.8116 2.40258C10.8116 2.23717 10.9465 2.10226 11.1119 2.10226C11.2773 2.10226 11.4123 2.23717 11.4123 2.40258ZM4.82041 11.1119H1.80194V8.10871H5.64073C5.11414 8.87931 4.80516 9.81005 4.80516 10.8116C4.80516 10.9131 4.81411 11.0122 4.82041 11.1119ZM9.61032 6.6071C9.81181 6.6071 10.0121 6.6266 10.211 6.6549V7.25965C10.013 7.22666 9.8124 7.20774 9.61032 7.20774C7.62303 7.20774 6.00645 8.82432 6.00645 10.8116C6.00645 12.7989 7.62303 14.4155 9.61032 14.4155C11.496 14.4155 13.0454 12.9586 13.1989 11.1119H13.7996C13.6446 13.2902 11.8273 15.0161 9.61032 15.0161C7.29177 15.0161 5.40581 13.1302 5.40581 10.8116C5.40581 8.49306 7.29177 6.6071 9.61032 6.6071ZM12.5983 11.1119C12.4471 12.6273 11.1647 13.8148 9.61032 13.8148C7.9543 13.8148 6.6071 12.4676 6.6071 10.8116C6.6071 9.15559 7.9543 7.80839 9.61032 7.80839C9.81328 7.80839 10.0136 7.83566 10.211 7.8757V10.5113H9.61032V11.1119H12.5983ZM10.8116 10.5113V6.30677H11.4123V10.5113H10.8116ZM13.2142 10.5113V8.10871H13.8148V10.5113H13.2142ZM15.6168 10.5113V6.30677H16.2174V10.5113H15.6168ZM0.600645 2.7029C0.600645 2.37164 0.870026 2.10226 1.20129 2.10226H8.40903C8.7403 2.10226 9.00968 2.37164 9.00968 2.7029V3.90419H0.600645V2.7029ZM0.600645 4.50484H9.00968V6.04824C7.88171 6.1899 6.8756 6.72265 6.12992 7.50806H1.20129V11.7126H4.89285C4.93186 11.9177 4.9845 12.118 5.04873 12.3132H1.20129V12.9139H5.29612C5.513 13.3566 5.79411 13.7613 6.12992 14.1152H0.600645V4.50484ZM1.20129 16.5177C0.870026 16.5177 0.600645 16.2484 0.600645 15.9171V14.7158H6.81973C7.45307 15.17 8.19977 15.4735 9.00968 15.575V15.9171C9.00968 16.2484 8.7403 16.5177 8.40903 16.5177H1.20129ZM9.31 18.0194C7.96309 18.0194 6.65124 17.707 5.45962 17.1184H8.40903C9.07156 17.1184 9.61032 16.5796 9.61032 15.9171V15.6168C10.5188 15.6168 11.3661 15.3588 12.0917 14.9188L13.8873 16.7144C12.513 17.5655 10.9383 18.0194 9.31 18.0194ZM16.2687 18.0194C16.1222 18.0194 15.9844 17.9623 15.8804 17.8583L12.5938 14.5717C12.8815 14.343 13.1415 14.0828 13.3704 13.795L16.6573 17.082C16.761 17.1857 16.8181 17.3235 16.8181 17.47C16.8181 17.7731 16.5719 18.0194 16.2687 18.0194Z" fill="#D8AC7A"/>
<path d="M3.30359 15.3165H6.30681V15.9171H3.30359V15.3165Z" fill="#D8AC7A"/>
<path d="M1.20129 5.10548H1.80194V5.70613H1.20129V5.10548Z" fill="#D8AC7A"/>
<path d="M2.40259 5.10548H3.00323V5.70613H2.40259V5.10548Z" fill="#D8AC7A"/>
<path d="M3.60388 5.10548H4.20453V5.70613H3.60388V5.10548Z" fill="#D8AC7A"/>
<path d="M4.80518 5.10548H8.40905V5.70613H4.80518V5.10548Z" fill="#D8AC7A"/>
<path d="M1.20129 6.30678H4.80516V6.90742H1.20129V6.30678Z" fill="#D8AC7A"/>
<path d="M5.40576 6.30678H6.00641V6.90742H5.40576V6.30678Z" fill="#D8AC7A"/>
</svg>
