<svg width="22" height="19" viewBox="0 0 22 19" fill="none" xmlns="http://www.w3.org/2000/svg">
<path d="M19.5645 3.33152H17.2195V1.06205C17.2195 0.476392 16.7431 0 16.1574 0H4.89392C4.30826 0 3.83187 0.476392 3.83187 1.06205V3.33152H1.48687C0.667051 3.33152 0 3.99857 0 4.81839V17.1331C0 17.9529 0.667051 18.62 1.48687 18.62H19.5645C20.3843 18.62 21.0513 17.9529 21.0513 17.1331V4.81839C21.0513 3.99848 20.3843 3.33152 19.5645 3.33152ZM5.10633 1.27446H15.9451V3.33152H5.10633V1.27446ZM1.48687 4.60598H19.5645C19.6796 4.60598 19.7769 4.70326 19.7769 4.81839V8.63997H13.3348V8.06902C13.3348 7.48336 12.8584 7.00697 12.2728 7.00697H8.77855C8.19289 7.00697 7.7165 7.48336 7.7165 8.06902V8.63997H1.27446V4.81839C1.27446 4.70317 1.37174 4.60598 1.48687 4.60598ZM12.0604 8.28151V10.3386H8.99096V8.28151H12.0604ZM19.5645 17.3455H1.48687C1.37174 17.3455 1.27446 17.2483 1.27446 17.1331V9.91443H7.7165V10.5509C7.7165 11.1366 8.19289 11.6129 8.77855 11.6129H12.2728C12.8584 11.6129 13.3348 11.1366 13.3348 10.5509V9.91443H19.7769V17.1331C19.7769 17.2483 19.6796 17.3455 19.5645 17.3455Z" fill="#D8AC7A"/>
</svg>
