<svg width="20" height="19" viewBox="0 0 20 19" fill="none" xmlns="http://www.w3.org/2000/svg">
<path d="M14.221 8.71144C13.53 8.7107 12.8469 8.8553 12.2156 9.13575V4.56234C12.2156 4.36692 12.0571 4.20866 11.8618 4.20866H11.4119V3.12906C11.4119 2.93376 11.2535 2.77538 11.0582 2.77538H10.2679V2.35168C10.2679 2.15626 10.1095 1.99801 9.91423 1.99801C9.71881 1.99801 9.56056 2.15626 9.56056 2.35168V2.77538H8.74873C8.55355 2.77538 8.39505 2.93376 8.39505 3.12906V4.20866H7.92275V2.80713C7.92275 2.61171 7.76437 2.45345 7.56907 2.45345H6.6599V1.35428C6.6599 1.15898 6.50152 1.0006 6.30623 1.0006H4.2729V0.353675C4.2729 0.158256 4.11465 0 3.91923 0C3.72393 0 3.56543 0.158256 3.56543 0.353675V1.0006H1.6164C1.42098 1.0006 1.26272 1.15898 1.26272 1.35428V2.45345H0.353675C0.158502 2.45345 0 2.61171 0 2.80713V15.7905C0 15.9858 0.158502 16.1442 0.353675 16.1442H9.92777C11.1297 18.2281 13.6544 19.1481 15.9153 18.3259C18.176 17.5037 19.5201 15.1769 19.1025 12.8076C18.6851 10.4385 16.6267 8.71132 14.221 8.71144ZM1.97007 1.70795H5.95255V2.45345H1.97007V1.70795ZM5.05077 15.4368H4.2729V13.2711H5.05077V15.4368ZM3.56543 15.4368H2.87198V13.2711H3.56543V15.4368ZM7.21515 15.4368H5.75812V12.9174C5.75812 12.722 5.59961 12.5637 5.40444 12.5637H2.51818C2.32301 12.5637 2.16451 12.722 2.16451 12.9174V15.4368H0.707474V3.1608H7.2154L7.21515 15.4368ZM9.10253 3.48273H10.7045V4.20866H9.10253V3.48273ZM7.92275 15.4368V4.91601H11.5084V9.52192C11.2525 9.68965 11.0128 9.88076 10.7919 10.0924C10.7573 10.0815 10.7211 10.0757 10.6847 10.0757H8.76423C8.56881 10.0757 8.41056 10.2342 8.41056 10.4295C8.41056 10.6249 8.56881 10.7832 8.76423 10.7832H10.1926C9.98598 11.071 9.81074 11.38 9.66996 11.7051H8.76423C8.56881 11.7051 8.41056 11.8635 8.41056 12.0588C8.41056 12.2541 8.56881 12.4125 8.76423 12.4125H9.42544C9.33548 12.7561 9.28281 13.1081 9.26853 13.4632H8.76423C8.56881 13.4632 8.41056 13.6214 8.41056 13.8168C8.41056 14.012 8.56881 14.1705 8.76423 14.1705H9.28933C9.33302 14.6041 9.43442 15.0299 9.59034 15.4368H7.92275ZM14.2211 17.918C11.8741 17.9182 9.97133 16.0156 9.97133 13.6687C9.97121 11.3217 11.8738 9.41891 14.2209 9.41891C16.5679 9.41891 18.4705 11.3214 18.4705 13.6686C18.4679 16.0143 16.5667 17.9154 14.221 17.918H14.2211Z" fill="#D8AC7A"/>
<path d="M1.81815 6.88148H6.1057C6.30099 6.88148 6.45937 6.7231 6.45937 6.52768C6.45937 6.33251 6.30099 6.174 6.1057 6.174H1.81815C1.62286 6.174 1.46448 6.33251 1.46448 6.52768C1.46448 6.7231 1.62286 6.88148 1.81815 6.88148Z" fill="#D8AC7A"/>
<path d="M1.81815 8.85375H6.1057C6.30099 8.85375 6.45937 8.6955 6.45937 8.50008C6.45937 8.30478 6.30099 8.14628 6.1057 8.14628H1.81815C1.62286 8.14628 1.46448 8.30478 1.46448 8.50008C1.46448 8.6955 1.62286 8.85375 1.81815 8.85375Z" fill="#D8AC7A"/>
<path d="M1.81815 10.8259H6.1057C6.30099 10.8259 6.45937 10.6677 6.45937 10.4722C6.45937 10.2769 6.30099 10.1186 6.1057 10.1186H1.81815C1.62286 10.1186 1.46448 10.2769 1.46448 10.4722C1.46448 10.6677 1.62286 10.8259 1.81815 10.8259Z" fill="#D8AC7A"/>
<path d="M1.81815 4.90907H6.1057C6.30099 4.90907 6.45937 4.75082 6.45937 4.5554C6.45937 4.3601 6.30099 4.20172 6.1057 4.20172H1.81815C1.62286 4.20172 1.46448 4.3601 1.46448 4.5554C1.46448 4.75082 1.62286 4.90907 1.81815 4.90907Z" fill="#D8AC7A"/>
<path d="M8.7642 9.02507H10.6079C10.8032 9.02507 10.9616 8.86669 10.9616 8.67139C10.9616 8.47597 10.8032 8.31772 10.6079 8.31772H8.7642C8.56878 8.31772 8.41052 8.47597 8.41052 8.67139C8.41052 8.86669 8.56878 9.02507 8.7642 9.02507Z" fill="#D8AC7A"/>
<path d="M8.7642 7.31007H10.6079C10.8032 7.31007 10.9616 7.15182 10.9616 6.9564C10.9616 6.7611 10.8032 6.6026 10.6079 6.6026H8.7642C8.56878 6.6026 8.41052 6.7611 8.41052 6.9564C8.41052 7.15182 8.56878 7.31007 8.7642 7.31007Z" fill="#D8AC7A"/>
<path d="M14.221 11.6499C14.7254 11.6506 15.1343 12.0594 15.1348 12.5639C15.1348 12.7592 15.2933 12.9176 15.4885 12.9176C15.6839 12.9176 15.8422 12.7592 15.8422 12.5639C15.8412 11.8051 15.3149 11.1482 14.5747 10.9818V10.5997C14.5747 10.4043 14.4163 10.2461 14.221 10.2461C14.0256 10.2461 13.8673 10.4043 13.8673 10.5997V10.9818C13.0606 11.162 12.5186 11.9204 12.6093 12.742C12.7 13.5635 13.3944 14.1853 14.221 14.1851C14.7233 14.1851 15.1316 14.5906 15.1349 15.093C15.1383 15.5955 14.7354 16.0063 14.2332 16.0128C14.2291 16.0128 14.2253 16.0122 14.221 16.0122C14.2167 16.0122 14.213 16.0127 14.2089 16.0128C13.7092 16.0058 13.3076 15.5989 13.307 15.0992C13.307 14.9039 13.1486 14.7454 12.9533 14.7454C12.7579 14.7454 12.5997 14.9039 12.5997 15.0992C12.6006 15.858 13.127 16.5149 13.8673 16.6813V17.1211C13.8673 17.3165 14.0256 17.4747 14.221 17.4747C14.4163 17.4747 14.5747 17.3165 14.5747 17.1211V16.6813C15.3812 16.501 15.9231 15.7428 15.8325 14.9212C15.7419 14.0996 15.0474 13.4779 14.221 13.4779C13.8929 13.4801 13.5889 13.3063 13.4244 13.0228C13.2599 12.739 13.2599 12.3889 13.4244 12.1053C13.5889 11.8215 13.8929 11.6478 14.221 11.6501V11.6499Z" fill="#D8AC7A"/>
</svg>
