<svg width="19" height="19" viewBox="0 0 19 19" fill="none" xmlns="http://www.w3.org/2000/svg">
<path d="M5.23699 18.6199C4.59517 18.6199 4.07324 18.098 4.07324 17.4562C4.07324 16.8144 4.59517 16.2924 5.23699 16.2924C5.3978 16.2924 5.52793 16.4224 5.52793 16.5834C5.52793 16.7443 5.3978 16.8743 5.23699 16.8743C4.91608 16.8743 4.65512 17.1353 4.65512 17.4562C4.65512 17.7771 4.91608 18.0381 5.23699 18.0381C5.3978 18.0381 5.52793 18.1681 5.52793 18.329C5.52793 18.49 5.3978 18.6199 5.23699 18.6199Z" fill="#D8AC7A"/>
<path d="M16.0017 16.8743H5.23698C5.07603 16.8743 4.94604 16.7443 4.94604 16.5834C4.94604 16.4224 5.07603 16.2924 5.23698 16.2924H16.0017C16.1625 16.2924 16.2926 16.4224 16.2926 16.5834C16.2926 16.7443 16.1625 16.8743 16.0017 16.8743Z" fill="#D8AC7A"/>
<path d="M16.0017 18.6199H5.23698C5.07603 18.6199 4.94604 18.4899 4.94604 18.3289C4.94604 18.168 5.07603 18.038 5.23698 18.038H16.0017C16.1625 18.038 16.2926 18.168 16.2926 18.3289C16.2926 18.4899 16.1625 18.6199 16.0017 18.6199Z" fill="#D8AC7A"/>
<path d="M16.0015 16.8733C15.8406 16.8733 15.7107 16.7434 15.7107 16.5825C15.7107 16.4217 15.8406 16.2918 16.0015 16.2918C16.3221 16.2918 16.583 16.0309 16.583 15.7102C16.583 15.5493 16.713 15.4194 16.8738 15.4194C17.0345 15.4194 17.1646 15.5493 17.1646 15.7102C17.1646 16.3517 16.6428 16.8733 16.0015 16.8733Z" fill="#D8AC7A"/>
<path d="M16.8738 1.45391C16.713 1.45391 16.583 1.32357 16.583 1.16313C16.583 0.842385 16.3221 0.581563 16.0015 0.581563C15.8406 0.581563 15.7107 0.451222 15.7107 0.290781C15.7107 0.13034 15.8406 0 16.0015 0C16.6428 0 17.1646 0.521646 17.1646 1.16313C17.1646 1.32357 17.0345 1.45391 16.8738 1.45391Z" fill="#D8AC7A"/>
<path d="M4.36402 1.45391C4.20316 1.45391 4.07324 1.32357 4.07324 1.16313C4.07324 0.521646 4.59489 0 5.23637 0C5.39709 0 5.52715 0.13034 5.52715 0.290781C5.52715 0.451222 5.39709 0.581563 5.23637 0.581563C4.91563 0.581563 4.6548 0.842385 4.6548 1.16313C4.6548 1.32357 4.52475 1.45391 4.36402 1.45391Z" fill="#D8AC7A"/>
<path d="M16.0015 18.6194C15.8406 18.6194 15.7107 18.4895 15.7107 18.3286C15.7107 18.1677 15.8406 18.0378 16.0015 18.0378C16.3221 18.0378 16.583 17.777 16.583 17.4562C16.583 17.2954 16.713 17.1655 16.8738 17.1655C17.0345 17.1655 17.1646 17.2954 17.1646 17.4562C17.1646 18.0977 16.6428 18.6194 16.0015 18.6194Z" fill="#D8AC7A"/>
<path d="M16.8745 6.9822C16.8 6.9822 16.7255 6.95365 16.6688 6.89697C16.555 6.78318 16.555 6.59935 16.6688 6.48556L17.7474 5.40705V2.03627H16.8745C16.7136 2.03627 16.5836 1.90586 16.5836 1.74533C16.5836 1.5848 16.7136 1.45439 16.8745 1.45439H18.0383C18.1991 1.45439 18.3292 1.5848 18.3292 1.74533V5.52752C18.3292 5.60465 18.2985 5.67881 18.2438 5.73322L17.0801 6.89697C17.0234 6.95365 16.949 6.9822 16.8745 6.9822Z" fill="#D8AC7A"/>
<path d="M16.0017 0.581875H5.23698C5.07603 0.581875 4.94604 0.451465 4.94604 0.290938C4.94604 0.13041 5.07603 0 5.23698 0H16.0017C16.1625 0 16.2926 0.13041 16.2926 0.290938C16.2926 0.451465 16.1625 0.581875 16.0017 0.581875Z" fill="#D8AC7A"/>
<path d="M4.36418 17.7474C4.20323 17.7474 4.07324 17.6174 4.07324 17.4565V1.16396C4.07324 1.00343 4.20323 0.873024 4.36418 0.873024C4.52499 0.873024 4.65512 1.00343 4.65512 1.16396V17.4565C4.65512 17.6174 4.52499 17.7474 4.36418 17.7474Z" fill="#D8AC7A"/>
<path d="M15.7108 17.7473H5.528C5.36704 17.7473 5.23706 17.6174 5.23706 17.4564C5.23706 17.2955 5.36704 17.1655 5.528 17.1655H15.7108C15.8716 17.1655 16.0017 17.2955 16.0017 17.4564C16.0017 17.6174 15.8716 17.7473 15.7108 17.7473Z" fill="#D8AC7A"/>
<path d="M15.7106 17.7463C15.5497 17.7463 15.4198 17.6164 15.4198 17.4556V16.5832C15.4198 16.4224 15.5497 16.2924 15.7106 16.2924C15.8713 16.2924 16.0014 16.4224 16.0014 16.5832V17.4556C16.0014 17.6164 15.8713 17.7463 15.7106 17.7463Z" fill="#D8AC7A"/>
<path d="M5.52784 17.7463C5.36698 17.7463 5.23706 17.6164 5.23706 17.4556V16.5832C5.23706 16.4224 5.36698 16.2924 5.52784 16.2924C5.68857 16.2924 5.81862 16.4224 5.81862 16.5832V17.4556C5.81862 17.6164 5.68857 17.7463 5.52784 17.7463Z" fill="#D8AC7A"/>
<path d="M16.8744 17.7474C16.7135 17.7474 16.5835 17.6174 16.5835 17.4565V1.16396C16.5835 1.00343 16.7135 0.873024 16.8744 0.873024C17.0352 0.873024 17.1654 1.00343 17.1654 1.16396V17.4565C17.1654 17.6174 17.0352 17.7474 16.8744 17.7474Z" fill="#D8AC7A"/>
<path d="M4.36376 2.03567H0.29106C0.130106 2.03567 0.00012207 1.90526 0.00012207 1.74473C0.00012207 1.58421 0.130106 1.4538 0.29106 1.4538H4.36376C4.52471 1.4538 4.6547 1.58421 4.6547 1.74473C4.6547 1.90526 4.52471 2.03567 4.36376 2.03567Z" fill="#D8AC7A"/>
<path d="M4.36366 16.5836H1.74565C1.5847 16.5836 1.45471 16.4536 1.45471 16.2927C1.45471 16.1317 1.5847 16.0018 1.74565 16.0018H4.36366C4.52461 16.0018 4.6546 16.1317 4.6546 16.2927C4.6546 16.4536 4.52461 16.5836 4.36366 16.5836Z" fill="#D8AC7A"/>
<path d="M0.29106 15.1279C0.130106 15.1279 0.00012207 14.9979 0.00012207 14.8369V1.74473C0.00012207 1.58421 0.130106 1.4538 0.29106 1.4538C0.451871 1.4538 0.581997 1.58421 0.581997 1.74473V14.8369C0.581997 14.9979 0.451871 15.1279 0.29106 15.1279Z" fill="#D8AC7A"/>
<path d="M1.74573 16.5835C1.67115 16.5835 1.59671 16.555 1.54003 16.4983L0.0853421 15.0436C-0.0284474 14.9298 -0.0284474 14.746 0.0853421 14.6322C0.19899 14.5184 0.382956 14.5184 0.496604 14.6322L1.95129 16.0869C2.06508 16.2007 2.06508 16.3845 1.95129 16.4983C1.89461 16.555 1.82017 16.5835 1.74573 16.5835Z" fill="#D8AC7A"/>
<path d="M1.74565 16.5834C1.5847 16.5834 1.45471 16.4535 1.45471 16.2925V14.8378C1.45471 14.6769 1.5847 14.5469 1.74565 14.5469C1.90646 14.5469 2.03659 14.6769 2.03659 14.8378V16.2925C2.03659 16.4535 1.90646 16.5834 1.74565 16.5834Z" fill="#D8AC7A"/>
<path d="M1.74575 15.1288H0.29106C0.130106 15.1288 0.00012207 14.9988 0.00012207 14.8378C0.00012207 14.6769 0.130106 14.5469 0.29106 14.5469H1.74575C1.90656 14.5469 2.03668 14.6769 2.03668 14.8378C2.03668 14.9988 1.90656 15.1288 1.74575 15.1288Z" fill="#D8AC7A"/>
<path d="M4.36412 6.10975H2.32756C2.16661 6.10975 2.03662 5.97933 2.03662 5.81881C2.03662 5.65828 2.16661 5.52787 2.32756 5.52787H4.36412C4.52493 5.52787 4.65506 5.65828 4.65506 5.81881C4.65506 5.97933 4.52493 6.10975 4.36412 6.10975Z" fill="#D8AC7A"/>
<path d="M4.36412 7.85531H2.32756C2.16661 7.85531 2.03662 7.7249 2.03662 7.56438C2.03662 7.40385 2.16661 7.27344 2.32756 7.27344H4.36412C4.52493 7.27344 4.65506 7.40385 4.65506 7.56438C4.65506 7.7249 4.52493 7.85531 4.36412 7.85531Z" fill="#D8AC7A"/>
<path d="M4.36412 9.60088H2.32756C2.16661 9.60088 2.03662 9.47047 2.03662 9.30994C2.03662 9.14942 2.16661 9.019 2.32756 9.019H4.36412C4.52493 9.019 4.65506 9.14942 4.65506 9.30994C4.65506 9.47047 4.52493 9.60088 4.36412 9.60088Z" fill="#D8AC7A"/>
<path d="M4.36412 11.3464H2.32756C2.16661 11.3464 2.03662 11.2165 2.03662 11.0555C2.03662 10.8946 2.16661 10.7646 2.32756 10.7646H4.36412C4.52493 10.7646 4.65506 10.8946 4.65506 11.0555C4.65506 11.2165 4.52493 11.3464 4.36412 11.3464Z" fill="#D8AC7A"/>
<path d="M13.3812 4.95141H8.14494C7.98413 4.95141 7.854 4.821 7.854 4.66047C7.854 4.49981 7.98413 4.36954 8.14494 4.36954H13.3812C13.5422 4.36954 13.6722 4.49981 13.6722 4.66047C13.6722 4.821 13.5422 4.95141 13.3812 4.95141Z" fill="#D8AC7A"/>
<path d="M10.7632 10.7711C10.6024 10.7711 10.4723 10.6411 10.4723 10.4801V3.78744C10.4723 3.62677 10.6024 3.49651 10.7632 3.49651C10.9242 3.49651 11.0542 3.62677 11.0542 3.78744V10.4804C11.0542 10.6411 10.9242 10.7711 10.7632 10.7711Z" fill="#D8AC7A"/>
<path d="M13.0907 10.7709H8.43571C8.2749 10.7709 8.14478 10.641 8.14478 10.48C8.14478 10.3192 8.2749 10.1891 8.43571 10.1891H13.0907C13.2517 10.1891 13.3816 10.3192 13.3816 10.48C13.3816 10.641 13.2517 10.7709 13.0907 10.7709Z" fill="#D8AC7A"/>
<path d="M14.2557 12.8067H7.27092C7.11011 12.8067 6.97998 12.6766 6.97998 12.5158C6.97998 12.3548 7.11011 12.2248 7.27092 12.2248H14.2557C14.4166 12.2248 14.5466 12.3548 14.5466 12.5158C14.5466 12.6766 14.4166 12.8067 14.2557 12.8067Z" fill="#D8AC7A"/>
<path d="M12.5098 13.6792H9.01689C8.85608 13.6792 8.72595 13.5491 8.72595 13.3883C8.72595 13.2274 8.85608 13.0974 9.01689 13.0974H12.5098C12.6708 13.0974 12.8008 13.2274 12.8008 13.3883C12.8008 13.5491 12.6708 13.6792 12.5098 13.6792Z" fill="#D8AC7A"/>
<path d="M8.14483 8.44282C7.50301 8.44282 6.98108 7.92089 6.98108 7.27907C6.98108 7.1184 7.11121 6.98813 7.27202 6.98813C7.43297 6.98813 7.56295 7.1184 7.56295 7.27907C7.56295 7.59998 7.82392 7.86094 8.14483 7.86094C8.46574 7.86094 8.7267 7.59998 8.7267 7.27907C8.7267 7.1184 8.85683 6.98813 9.01764 6.98813C9.17859 6.98813 9.30858 7.1184 9.30858 7.27907C9.30858 7.92061 8.78665 8.44282 8.14483 8.44282Z" fill="#D8AC7A"/>
<path d="M9.01764 7.57H7.27202C7.11121 7.57 6.98108 7.43959 6.98108 7.27907C6.98108 7.1184 7.11121 6.98813 7.27202 6.98813H9.01764C9.17859 6.98813 9.30858 7.1184 9.30858 7.27907C9.30858 7.43959 9.17859 7.57 9.01764 7.57Z" fill="#D8AC7A"/>
<path d="M7.27201 7.57038C7.24175 7.57038 7.21064 7.5654 7.1801 7.55518C7.02795 7.50432 6.94527 7.33967 6.99627 7.18724L7.86909 4.56824C7.91994 4.41609 8.08317 4.33284 8.23702 4.38427C8.38931 4.43527 8.47184 4.59992 8.42099 4.75235L7.54817 7.37135C7.5074 7.49324 7.3939 7.57038 7.27201 7.57038Z" fill="#D8AC7A"/>
<path d="M9.01765 7.57027C8.89577 7.57027 8.78226 7.49313 8.74192 7.37124L7.8691 4.75224C7.8181 4.59981 7.9005 4.43516 8.05293 4.38416C8.20621 4.33302 8.37029 4.41598 8.421 4.56813L9.29382 7.18713C9.34467 7.33956 9.26242 7.50421 9.10985 7.55507C9.07902 7.5653 9.0482 7.57027 9.01765 7.57027Z" fill="#D8AC7A"/>
<path d="M13.3812 8.44282C12.7393 8.44282 12.2174 7.92089 12.2174 7.27907C12.2174 7.1184 12.3475 6.98813 12.5083 6.98813C12.6693 6.98813 12.7993 7.1184 12.7993 7.27907C12.7993 7.59998 13.0602 7.86094 13.3812 7.86094C13.7021 7.86094 13.963 7.59998 13.963 7.27907C13.963 7.1184 14.0932 6.98813 14.254 6.98813C14.4149 6.98813 14.5449 7.1184 14.5449 7.27907C14.5449 7.92061 14.023 8.44282 13.3812 8.44282Z" fill="#D8AC7A"/>
<path d="M14.254 7.57H12.5083C12.3475 7.57 12.2174 7.43959 12.2174 7.27907C12.2174 7.1184 12.3475 6.98813 12.5083 6.98813H14.254C14.4149 6.98813 14.5449 7.1184 14.5449 7.27907C14.5449 7.43959 14.4149 7.57 14.254 7.57Z" fill="#D8AC7A"/>
<path d="M12.5083 7.57038C12.4781 7.57038 12.447 7.5654 12.4164 7.55518C12.2643 7.50432 12.1816 7.33967 12.2326 7.18724L13.1054 4.56824C13.1563 4.41609 13.3192 4.33284 13.4733 4.38427C13.6255 4.43527 13.7082 4.59992 13.6573 4.75235L12.7845 7.37135C12.7437 7.49324 12.6302 7.57038 12.5083 7.57038Z" fill="#D8AC7A"/>
<path d="M14.254 7.57027C14.1321 7.57027 14.0186 7.49313 13.9782 7.37124L13.1054 4.75224C13.0544 4.59981 13.1368 4.43516 13.2893 4.38416C13.4425 4.33302 13.6063 4.41598 13.6573 4.56813L14.5301 7.18713C14.581 7.33956 14.4987 7.50421 14.3462 7.55507C14.3154 7.5653 14.2845 7.57027 14.254 7.57027Z" fill="#D8AC7A"/>
</svg>
