<svg width="19" height="19" viewBox="0 0 19 19" fill="none" xmlns="http://www.w3.org/2000/svg">
<path d="M17.689 2.17233V1.862C17.689 1.69062 17.55 1.55167 17.3787 1.55167H16.4477C16.4467 0.695147 15.7525 0.00100858 14.896 0H2.48267C1.62615 0.00100858 0.932009 0.695147 0.931 1.55167C0.416816 1.55167 0 1.96848 0 2.48267C0 2.99685 0.416816 3.41367 0.931 3.41367C0.932009 4.27019 1.62615 4.96432 2.48267 4.96533H14.896C15.7525 4.96432 16.4467 4.27019 16.4477 3.41367H17.3787C17.55 3.41367 17.689 3.27471 17.689 3.10333V2.793C17.8604 2.793 17.9993 2.93195 17.9993 3.10333V5.72596C17.9993 5.86743 17.9036 5.99099 17.7666 6.02636L9.07725 8.26883C8.66672 8.37481 8.37966 8.74481 8.379 9.1688V11.172H7.75833C7.58695 11.172 7.448 11.311 7.448 11.4823V17.689C7.448 18.2032 7.86482 18.62 8.379 18.62H8.99967C9.51385 18.62 9.93067 18.2032 9.93067 17.689V11.4823C9.93067 11.311 9.79172 11.172 9.62033 11.172H8.99967V9.17004C8.99971 9.02857 9.09544 8.90501 9.23242 8.86964L17.9218 6.62717C18.3323 6.52119 18.6193 6.15119 18.62 5.7272V3.10333C18.62 2.58915 18.2032 2.17233 17.689 2.17233ZM0.931 2.793C0.759618 2.793 0.620667 2.65405 0.620667 2.48267C0.620667 2.31129 0.759618 2.17233 0.931 2.17233V2.793ZM15.827 3.41367C15.827 3.92785 15.4102 4.34467 14.896 4.34467H2.48267C1.96848 4.34467 1.55167 3.92785 1.55167 3.41367V1.55167C1.55167 1.03748 1.96848 0.620667 2.48267 0.620667H14.896C15.4102 0.620667 15.827 1.03748 15.827 1.55167V3.41367ZM17.0683 2.793H16.4477V2.17233H17.0683V2.793ZM9.31 11.7927V17.689C9.31 17.8604 9.17105 17.9993 8.99967 17.9993H8.379C8.20762 17.9993 8.06867 17.8604 8.06867 17.689V11.7927H9.31Z" fill="#D8AC7A"/>
</svg>
