<svg width="21" height="19" viewBox="0 0 21 19" fill="none" xmlns="http://www.w3.org/2000/svg">
<path d="M3.96651 18.62H16.5211C16.7537 18.62 16.9421 18.4316 16.9421 18.199V8.75615C16.9421 8.52344 16.7537 8.33516 16.5211 8.33516H12.2587V4.03471C12.2587 3.80229 12.0703 3.61373 11.8377 3.61373H10.8813V2.44974C10.8813 2.21732 10.6927 2.02876 10.4603 2.02876H8.27925V0.420983C8.27925 0.188565 8.09068 0 7.85826 0C7.62585 0 7.43728 0.188565 7.43728 0.420983V2.02876H5.34392C5.1115 2.02876 4.92293 2.21732 4.92293 2.44974V3.61373H3.96651C3.73395 3.61373 3.54553 3.80229 3.54553 4.03471V18.199C3.54553 18.4316 3.73395 18.62 3.96651 18.62ZM16.1002 9.17713V17.778H12.2587V9.17713H16.1002ZM9.05543 17.778H8.27925V15.4854H9.05543V17.778ZM7.43728 17.778H6.7488V15.4854H7.43728V17.778ZM5.7649 2.87072H10.0393V3.61373H5.7649V2.87072ZM4.3875 4.45569H11.4167V17.778H9.8974V15.0645C9.8974 14.832 9.70883 14.6435 9.47642 14.6435H6.32782C6.0954 14.6435 5.90684 14.832 5.90684 15.0645V17.778H4.3875V4.45569Z" fill="#D8AC7A"/>
<path d="M5.56625 8.51329H10.2438C10.4762 8.51329 10.6648 8.32473 10.6648 8.09231C10.6648 7.85989 10.4762 7.67133 10.2438 7.67133H5.56625C5.33383 7.67133 5.14526 7.85989 5.14526 8.09231C5.14526 8.32473 5.33383 8.51329 5.56625 8.51329Z" fill="#D8AC7A"/>
<path d="M5.56625 10.665H10.2438C10.4762 10.665 10.6648 10.4765 10.6648 10.244C10.6648 10.0116 10.4762 9.82305 10.2438 9.82305H5.56625C5.33383 9.82305 5.14526 10.0116 5.14526 10.244C5.14526 10.4765 5.33383 10.665 5.56625 10.665Z" fill="#D8AC7A"/>
<path d="M10.2438 12.8167C10.4762 12.8167 10.6648 12.6282 10.6648 12.3958C10.6648 12.1633 10.4762 11.9748 10.2438 11.9748H5.56625C5.33383 11.9748 5.14526 12.1633 5.14526 12.3958C5.14526 12.6282 5.33383 12.8167 5.56625 12.8167H10.2438Z" fill="#D8AC7A"/>
<path d="M5.56625 6.36156H10.2438C10.4762 6.36156 10.6648 6.173 10.6648 5.94058C10.6648 5.70817 10.4762 5.5196 10.2438 5.5196H5.56625C5.33383 5.5196 5.14526 5.70817 5.14526 5.94058C5.14526 6.173 5.33383 6.36156 5.56625 6.36156Z" fill="#D8AC7A"/>
<path d="M13.144 12.7698H15.1554C15.3878 12.7698 15.5763 12.5812 15.5763 12.3488C15.5763 12.1164 15.3878 11.9278 15.1554 11.9278H13.144C12.9116 11.9278 12.723 12.1164 12.723 12.3488C12.723 12.5812 12.9116 12.7698 13.144 12.7698Z" fill="#D8AC7A"/>
<path d="M13.144 14.5471H15.1554C15.3878 14.5471 15.5763 14.3586 15.5763 14.1261C15.5763 13.8937 15.3878 13.7052 15.1554 13.7052H13.144C12.9116 13.7052 12.723 13.8937 12.723 14.1261C12.723 14.3586 12.9116 14.5471 13.144 14.5471Z" fill="#D8AC7A"/>
<path d="M15.1554 15.6232H13.144C12.9116 15.6232 12.723 15.8118 12.723 16.0442C12.723 16.2766 12.9116 16.4652 13.144 16.4652H15.1554C15.3878 16.4652 15.5763 16.2766 15.5763 16.0442C15.5763 15.8118 15.3878 15.6232 15.1554 15.6232Z" fill="#D8AC7A"/>
<path d="M13.144 10.8522H15.1554C15.3878 10.8522 15.5763 10.6637 15.5763 10.4312C15.5763 10.1988 15.3878 10.0103 15.1554 10.0103H13.144C12.9116 10.0103 12.723 10.1988 12.723 10.4312C12.723 10.6637 12.9116 10.8522 13.144 10.8522Z" fill="#D8AC7A"/>
<path d="M1.1694 16.6294V18.1956C1.1694 18.4281 1.35796 18.6166 1.59038 18.6166C1.8228 18.6166 2.01136 18.4281 2.01136 18.1956V16.6294C2.70145 16.4391 3.17988 15.8118 3.18076 15.096V13.6927C3.18076 12.8145 2.46874 12.1024 1.59038 12.1024C0.712016 12.1024 0 12.8145 0 13.6927V15.096C0.000877047 15.8118 0.479306 16.4391 1.1694 16.6294ZM0.841965 13.6927C0.841965 13.2794 1.177 12.9443 1.59038 12.9443C2.00376 12.9443 2.33879 13.2794 2.33879 13.6927V15.096C2.33879 15.5094 2.00376 15.8444 1.59038 15.8444C1.177 15.8444 0.841965 15.5094 0.841965 15.096V13.6927Z" fill="#D8AC7A"/>
<path d="M18.8974 12.1024C18.0195 12.1034 17.3082 12.8148 17.307 13.6927V15.096C17.3079 15.8118 17.7863 16.4391 18.4764 16.6294V18.1956C18.4764 18.4281 18.665 18.6166 18.8974 18.6166C19.1298 18.6166 19.3184 18.4281 19.3184 18.1956V16.6294C20.0085 16.4391 20.4869 15.8118 20.4878 15.096V13.6927C20.4866 12.8148 19.7753 12.1034 18.8974 12.1024ZM19.6458 15.096C19.6458 15.5094 19.3108 15.8444 18.8974 15.8444C18.484 15.8444 18.149 15.5094 18.149 15.096V13.6927C18.149 13.2794 18.484 12.9443 18.8974 12.9443C19.3108 12.9443 19.6458 13.2794 19.6458 13.6927V15.096Z" fill="#D8AC7A"/>
</svg>
