<svg width="19" height="19" viewBox="0 0 19 19" fill="none" xmlns="http://www.w3.org/2000/svg">
<path d="M15.5167 13.4175L14.7263 12.944C14.4854 12.7999 14.2097 12.7238 13.9289 12.7237H12.7394C12.4959 12.7232 12.2535 12.7546 12.018 12.8167L8.43401 13.7788C8.04215 13.887 7.72742 14.1788 7.59014 14.5614L4.43771 12.8559C4.18208 12.7105 3.88281 12.6611 3.59399 12.7165C3.48504 12.7358 3.37942 12.7705 3.28017 12.8196C3.05606 12.9269 2.87013 13.1002 2.74709 13.3161C2.6395 13.5042 2.58298 13.7171 2.58298 13.9336C2.57965 14.3758 2.81391 14.7855 3.19638 15.0071L8.84632 18.3875C9.0918 18.5395 9.37455 18.62 9.66322 18.62H14.0358C14.2311 18.6201 14.4246 18.5832 14.6061 18.5113L15.5167 18.1518V18.62H18.62V12.4133H15.5167V13.4175ZM14.3781 17.9342C14.2694 17.9771 14.1535 17.9992 14.0367 17.9993H9.66322C9.48835 17.9992 9.31697 17.9499 9.16878 17.8572L3.5111 14.4728C3.31881 14.3617 3.20107 14.1559 3.20259 13.9339C3.20304 13.8251 3.23168 13.7182 3.28578 13.6236C3.3476 13.5165 3.44064 13.4306 3.55232 13.3775C3.60157 13.3536 3.65369 13.3366 3.70749 13.3272C3.74673 13.3199 3.78658 13.3161 3.82644 13.3161C3.93311 13.3158 4.03797 13.3437 4.13056 13.3968L7.54892 15.2439C7.55286 15.2629 7.55286 15.2815 7.55786 15.3004C7.70485 15.8421 8.19626 16.2184 8.75768 16.219C8.93042 16.2032 9.1015 16.1726 9.26909 16.1278L12.4933 15.265L12.3333 14.6654L9.11953 15.5244C8.978 15.557 8.79541 15.5942 8.75768 15.5974C8.47735 15.5979 8.23156 15.4106 8.15777 15.1403C8.14777 15.1027 8.14186 15.0642 8.13974 15.0254C8.13974 15.0254 8.13731 14.9502 8.13974 14.9239C8.16338 14.6643 8.34521 14.4464 8.5963 14.3766L12.1788 13.4181C12.3617 13.3692 12.5502 13.3443 12.7394 13.3443H13.9289C14.0974 13.3443 14.2628 13.3901 14.4072 13.4766L15.5167 14.1409V17.4841L14.3781 17.9342ZM16.1373 13.034H17.9993V17.9993H16.1373V13.034Z" fill="#D8AC7A"/>
<path d="M12.7994 2.48268L11.1347 0.818122C10.6121 0.292464 9.90097 -0.00211004 9.15983 1.13794e-05H5.25824C5.01746 0.000314439 4.78001 0.056532 4.56439 0.163815L3.86886 0.511728C3.72946 0.581886 3.57459 0.615374 3.41867 0.609162L3.10333 0.5981V1.13794e-05H0V6.82734H3.10333V5.89634H3.63096L3.81871 6.02045C4.34406 6.36927 4.95579 6.56626 5.586 6.58929V10.5513H18.62V2.48268H12.7994ZM2.48267 6.20668H0.620667V0.620678H2.48267V6.20668ZM4.16222 5.50403L3.81704 5.27568H3.10333V1.21907L3.39594 1.22953C3.65581 1.23877 3.91372 1.18285 4.14631 1.06693L4.84123 0.719021C4.97064 0.654318 5.11353 0.620678 5.25824 0.620678H9.15983C9.73625 0.619011 10.2895 0.848124 10.6959 1.2568L11.9218 2.48268H9.36091L8.60766 1.72957L8.16898 2.16825L10.3612 4.36059C10.6047 4.60304 10.6054 4.99701 10.363 5.24067C10.1204 5.48418 9.7264 5.48494 9.4829 5.24249L7.65196 3.41156L7.43467 3.59779C6.83476 4.10723 5.95785 4.12026 5.34295 3.6287L5.16308 3.48293L4.77198 3.9651L4.95382 4.11253C5.14399 4.26452 5.35749 4.38483 5.586 4.46878V5.96832C5.07807 5.94574 4.58575 5.78527 4.16222 5.50403ZM8.57675 5.21355L9.04497 5.68193C9.53108 6.16076 10.3115 6.16152 10.7983 5.68344C10.3428 6.38882 10.5225 7.32754 11.2064 7.81471C11.8903 8.30188 12.8363 8.16505 13.354 7.50423C13.8718 6.84325 13.7783 5.89195 13.1416 5.34462C12.505 4.7973 11.5504 4.84745 10.9747 5.45842C11.1867 5.12551 11.2246 4.71062 11.0764 4.34468H15.2321C15.3656 5.12551 15.9772 5.73709 16.758 5.87058V7.16344C15.9772 7.29694 15.3656 7.90851 15.2321 8.68934H8.97391C8.84041 7.90851 8.22883 7.29694 7.448 7.16344V5.87058C7.89153 5.79588 8.29263 5.56237 8.57675 5.21355ZM11.172 6.51701C11.172 6.00287 11.5889 5.58601 12.103 5.58601C12.6171 5.58601 13.034 6.00287 13.034 6.51701C13.034 7.03115 12.6171 7.44801 12.103 7.44801C11.5889 7.44801 11.172 7.03115 11.172 6.51701ZM17.9993 9.93068H6.20667V4.59879C6.69868 4.63577 7.18919 4.5103 7.60317 4.24194L8.13261 4.77139C7.89971 5.08778 7.53058 5.27492 7.13767 5.27568H6.82733V7.75834H7.13767C7.82319 7.75834 8.379 8.31416 8.379 8.99968V9.31001H15.827V8.99968C15.827 8.31416 16.3828 7.75834 17.0683 7.75834H17.3787V5.27568H17.0683C16.3828 5.27568 15.827 4.71987 15.827 4.03434V3.72401H10.6022L9.98158 3.10334H17.9993V9.93068Z" fill="#D8AC7A"/>
</svg>
