<svg width="19" height="19" viewBox="0 0 19 19" fill="none" xmlns="http://www.w3.org/2000/svg">
<path d="M9.31 0C8.28163 0 7.448 0.833633 7.448 1.862C7.448 2.89037 8.28163 3.724 9.31 3.724C10.3379 3.72299 11.171 2.88994 11.172 1.862C11.172 0.833633 10.3384 0 9.31 0ZM9.31 3.10333C8.62443 3.10333 8.06866 2.54757 8.06866 1.862C8.06866 1.17643 8.62443 0.620667 9.31 0.620667C9.99556 0.620667 10.5513 1.17643 10.5513 1.862C10.5513 2.54757 9.99556 3.10333 9.31 3.10333Z" fill="#D8AC7A"/>
<path d="M10.5513 4.03467H10.4781L10.4126 4.06725C9.71817 4.413 8.90176 4.413 8.20735 4.06725L8.14187 4.03467H8.06863C7.21211 4.03568 6.51798 4.72982 6.51697 5.58634V7.44834C6.51697 7.96252 6.93378 8.37934 7.44797 8.37934H11.172C11.6862 8.37934 12.103 7.96252 12.103 7.44834V5.58634C12.102 4.72982 11.4078 4.03568 10.5513 4.03467ZM11.4823 7.44834C11.4823 7.61972 11.3433 7.75867 11.172 7.75867H7.44797C7.27659 7.75867 7.13763 7.61972 7.13763 7.44834V5.58634C7.13771 5.09787 7.51527 4.6925 8.00253 4.65782C8.83171 5.04263 9.78827 5.04263 10.6174 4.65782C11.1046 4.6925 11.4822 5.09787 11.4823 5.58634V7.44834Z" fill="#D8AC7A"/>
<path d="M15.827 10.2412C14.7986 10.2412 13.965 11.0748 13.965 12.1032C13.965 13.1316 14.7986 13.9652 15.827 13.9652C16.8553 13.9652 17.689 13.1316 17.689 12.1032C17.688 11.0753 16.8549 10.2422 15.827 10.2412ZM15.827 13.3445C15.1414 13.3445 14.5856 12.7888 14.5856 12.1032C14.5856 11.4176 15.1414 10.8619 15.827 10.8619C16.5125 10.8619 17.0683 11.4176 17.0683 12.1032C17.0683 12.7888 16.5125 13.3445 15.827 13.3445Z" fill="#D8AC7A"/>
<path d="M17.0684 14.2754H16.9952L16.9297 14.3064C16.2353 14.6521 15.4189 14.6521 14.7244 14.3064L14.659 14.2754H14.5857C13.7292 14.2764 13.0351 14.9705 13.0341 15.8271V17.6891C13.0341 18.2032 13.4509 18.6201 13.9651 18.6201H17.6891C18.2032 18.6201 18.6201 18.2032 18.6201 17.6891V15.8271C18.619 14.9705 17.9249 14.2764 17.0684 14.2754ZM17.9994 17.6891C17.9994 17.8604 17.8604 17.9994 17.6891 17.9994H13.9651C13.7937 17.9994 13.6547 17.8604 13.6547 17.6891V15.8271C13.6548 15.3386 14.0324 14.9332 14.5196 14.8985C15.3488 15.2834 16.3053 15.2834 17.1345 14.8985C17.6218 14.9332 17.9993 15.3386 17.9994 15.8271V17.6891Z" fill="#D8AC7A"/>
<path d="M2.79303 10.2412C1.76466 10.2412 0.93103 11.0748 0.93103 12.1032C0.93103 13.1316 1.76466 13.9652 2.79303 13.9652C3.8214 13.9652 4.65503 13.1316 4.65503 12.1032C4.65402 11.0753 3.82097 10.2422 2.79303 10.2412ZM2.79303 13.3445C2.10747 13.3445 1.5517 12.7888 1.5517 12.1032C1.5517 11.4176 2.10747 10.8619 2.79303 10.8619C3.4786 10.8619 4.03436 11.4176 4.03436 12.1032C4.03436 12.7888 3.4786 13.3445 2.79303 13.3445Z" fill="#D8AC7A"/>
<path d="M4.03433 14.2754H3.9611L3.89561 14.3064C3.20121 14.6521 2.3848 14.6521 1.69039 14.3064L1.62491 14.2754H1.55167C0.695147 14.2764 0.00100858 14.9705 0 15.8271V17.6891C0 18.2032 0.416817 18.6201 0.931 18.6201H4.655C5.16918 18.6201 5.586 18.2032 5.586 17.6891V15.8271C5.58499 14.9705 4.89085 14.2764 4.03433 14.2754ZM4.96533 17.6891C4.96533 17.8604 4.82638 17.9994 4.655 17.9994H0.931C0.759619 17.9994 0.620667 17.8604 0.620667 17.6891V15.8271C0.620744 15.3386 0.998304 14.9332 1.48557 14.8985C2.31474 15.2834 3.27126 15.2834 4.10043 14.8985C4.5877 14.9332 4.96526 15.3386 4.96533 15.8271V17.6891Z" fill="#D8AC7A"/>
<path d="M12.3889 15.76C12.3888 15.7597 12.3886 15.7593 12.3885 15.7589C12.3213 15.6012 12.139 15.5279 11.9814 15.5951C10.58 16.1824 9.02369 16.2895 7.55507 15.8998L7.84554 15.8145C8.0101 15.7663 8.10444 15.5939 8.05626 15.4294C8.00808 15.2648 7.83569 15.1705 7.67114 15.2186L6.4298 15.5827C6.42515 15.5827 6.42174 15.5879 6.41739 15.5895C6.38865 15.6002 6.36165 15.6152 6.33733 15.6339C6.32654 15.6397 6.31618 15.6462 6.30629 15.6534C6.27355 15.6826 6.2476 15.7186 6.23026 15.7589C6.21342 15.7995 6.2054 15.8432 6.20668 15.8871C6.21424 15.9291 6.2246 15.9706 6.23771 16.0112C6.23957 16.0156 6.23771 16.0205 6.24112 16.0249L6.86179 17.2125C6.94116 17.3646 7.12871 17.4235 7.28074 17.3441C7.43276 17.2648 7.49169 17.0772 7.41232 16.9252L7.15971 16.4423C8.82829 16.9439 10.6197 16.8464 12.224 16.1667C12.3818 16.1 12.4557 15.9179 12.3889 15.76Z" fill="#D8AC7A"/>
<path d="M17.5981 8.1596C17.4769 8.03845 17.2805 8.03845 17.1593 8.1596L16.7202 8.59872C16.4632 5.88059 14.7375 3.52182 12.2247 2.45412C12.067 2.38693 11.8847 2.46029 11.8175 2.61797C11.7503 2.77566 11.8237 2.95794 11.9814 3.02513C14.2356 3.98317 15.8025 6.07683 16.0862 8.50965L15.7361 8.1596C15.6128 8.0405 15.4164 8.04392 15.2973 8.1672C15.1811 8.28745 15.1811 8.47811 15.2973 8.59841L16.2283 9.52941C16.3493 9.65075 16.5458 9.65102 16.6672 9.52995C16.6674 9.52976 16.6676 9.52956 16.6677 9.52941L17.5987 8.59841C17.7197 8.47707 17.7194 8.28063 17.5981 8.1596Z" fill="#D8AC7A"/>
<path d="M6.81827 2.68715C6.81727 2.66903 6.81459 2.65107 6.8102 2.63346C6.8102 2.63067 6.80679 2.6288 6.80555 2.6257C6.80431 2.6226 6.80555 2.62043 6.80555 2.61794C6.79709 2.60285 6.78732 2.5885 6.77638 2.57512C6.76633 2.55692 6.75446 2.53978 6.741 2.52391C6.72265 2.50766 6.70233 2.49381 6.68049 2.48264C6.66959 2.47337 6.65795 2.46495 6.64573 2.4575L5.4044 1.89052C5.24585 1.82543 5.06454 1.90119 4.99945 2.05973C4.93789 2.20966 5.00209 2.38174 5.14682 2.45471L5.78952 2.74859C3.36997 4.0435 1.86019 6.56569 1.86194 9.30997C1.86194 9.48135 2.00089 9.62031 2.17227 9.62031C2.34365 9.62031 2.48261 9.48135 2.48261 9.30997C2.48105 6.89352 3.75889 4.65683 5.84134 3.43102L5.61697 3.89993C5.543 4.05421 5.60782 4.23924 5.7619 4.3136C5.80376 4.33405 5.84968 4.34468 5.89627 4.34464C6.01544 4.34448 6.12398 4.27609 6.17557 4.16868L6.79624 2.87366C6.79624 2.87055 6.79624 2.86714 6.79872 2.86404C6.80679 2.84282 6.81242 2.82075 6.81548 2.79825C6.8208 2.78153 6.82475 2.76442 6.82727 2.74704C6.82623 2.72683 6.82324 2.70678 6.81827 2.68715Z" fill="#D8AC7A"/>
</svg>
