<svg width="19" height="20" viewBox="0 0 19 20" fill="none" xmlns="http://www.w3.org/2000/svg">
<path d="M15.0859 8.138C17.1395 8.138 18.8099 6.46754 18.8099 4.414C18.8099 2.36047 17.1395 0.690002 15.0859 0.690002C13.5947 0.690002 12.309 1.57297 11.7149 2.84188L10.7176 2.47381C10.7295 2.39744 10.7413 2.32107 10.7413 2.24167C10.7413 1.38613 10.0451 0.690002 9.18961 0.690002C8.33407 0.690002 7.63794 1.38613 7.63794 2.24167C7.63794 3.09721 8.33407 3.79334 9.18961 3.79334C9.74542 3.79334 10.2302 3.49694 10.5041 3.0566L11.4997 3.42406C11.4122 3.74 11.3619 4.07079 11.3619 4.414C11.3619 4.82056 11.4295 5.2109 11.5506 5.57745L8.13754 7.02395C7.51263 5.84248 6.2722 5.03467 4.84494 5.03467C4.38247 5.03467 3.94122 5.12347 3.53224 5.27803L2.67382 3.47406C3.0478 3.1904 3.29327 2.74596 3.29327 2.24167C3.29327 1.38613 2.59715 0.690002 1.74161 0.690002C0.88607 0.690002 0.189941 1.38613 0.189941 2.24167C0.189941 3.09721 0.88607 3.79334 1.74161 3.79334C1.87071 3.79334 1.99451 3.77288 2.11467 3.74272L2.97203 5.54487C1.86692 6.1916 1.12094 7.38823 1.12094 8.75867C1.12094 10.0459 1.77767 11.1821 2.77322 11.8511L2.20559 12.8715C2.05785 12.825 1.9042 12.793 1.74161 12.793C0.88607 12.793 0.189941 13.4891 0.189941 14.3447C0.189941 15.2002 0.88607 15.8963 1.74161 15.8963C2.59715 15.8963 3.29327 15.2002 3.29327 14.3447C3.29327 13.8748 3.07886 13.4581 2.74807 13.1735L3.31691 12.151C3.78363 12.3622 4.30004 12.4827 4.84494 12.4827C5.69654 12.4827 6.4798 12.1922 7.10789 11.7093L8.32937 13.053C7.70992 13.7184 7.32761 14.6073 7.32761 15.586C7.32761 15.7759 7.34655 15.9609 7.37383 16.143L5.93671 16.4841C5.68942 15.9553 5.15588 15.586 4.53461 15.586C3.67907 15.586 2.98294 16.2821 2.98294 17.1377C2.98294 17.9932 3.67907 18.6893 4.53461 18.6893C5.39015 18.6893 6.08628 17.9932 6.08628 17.1377C6.08628 17.1205 6.08158 17.1045 6.08127 17.0874L7.51566 16.7473C8.0048 18.2334 9.40372 19.31 11.0516 19.31C13.1051 19.31 14.7756 17.6395 14.7756 15.586C14.7756 14.9493 14.6145 14.3497 14.3315 13.8252L16.1544 12.64C16.4362 12.9254 16.8266 13.1033 17.2583 13.1033C18.1138 13.1033 18.8099 12.4072 18.8099 11.5517C18.8099 10.6961 18.1138 10 17.2583 10C16.4027 10 15.7066 10.6961 15.7066 11.5517C15.7066 11.7521 15.7478 11.9426 15.8174 12.1187L13.9902 13.3065C13.6246 12.8365 13.1498 12.4569 12.6033 12.2049L14.118 8.00587C14.4271 8.08921 14.7508 8.138 15.0859 8.138ZM9.18961 3.17267C8.67638 3.17267 8.25861 2.7549 8.25861 2.24167C8.25861 1.72844 8.67638 1.31067 9.18961 1.31067C9.70284 1.31067 10.1206 1.72844 10.1206 2.24167C10.1206 2.7549 9.70284 3.17267 9.18961 3.17267ZM0.810608 2.24167C0.810608 1.72844 1.22838 1.31067 1.74161 1.31067C2.25484 1.31067 2.67261 1.72844 2.67261 2.24167C2.67261 2.7549 2.25484 3.17267 1.74161 3.17267C1.22838 3.17267 0.810608 2.7549 0.810608 2.24167ZM1.74161 15.2757C1.22838 15.2757 0.810608 14.8579 0.810608 14.3447C0.810608 13.8314 1.22838 13.4137 1.74161 13.4137C2.25484 13.4137 2.67261 13.8314 2.67261 14.3447C2.67261 14.8579 2.25484 15.2757 1.74161 15.2757ZM4.53461 18.0687C4.02138 18.0687 3.60361 17.6509 3.60361 17.1377C3.60361 16.6244 4.02138 16.2067 4.53461 16.2067C5.04784 16.2067 5.46561 16.6244 5.46561 17.1377C5.46561 17.6509 5.04784 18.0687 4.53461 18.0687ZM17.2583 10.6207C17.7715 10.6207 18.1893 11.0384 18.1893 11.5517C18.1893 12.0649 17.7715 12.4827 17.2583 12.4827C16.745 12.4827 16.3273 12.0649 16.3273 11.5517C16.3273 11.0384 16.745 10.6207 17.2583 10.6207ZM13.2583 6.91652C13.3968 6.19872 14.0296 5.65534 14.7756 5.65534H15.3963C16.1423 5.65534 16.775 6.19872 16.9135 6.91652C16.4002 7.29231 15.7696 7.51734 15.0859 7.51734C14.4022 7.51734 13.7717 7.29231 13.2583 6.91652ZM15.0859 5.03467C14.5727 5.03467 14.1549 4.6169 14.1549 4.10367C14.1549 3.59044 14.5727 3.17267 15.0859 3.17267C15.5992 3.17267 16.0169 3.59044 16.0169 4.10367C16.0169 4.6169 15.5992 5.03467 15.0859 5.03467ZM15.0859 1.31067C16.7972 1.31067 18.1893 2.70277 18.1893 4.414C18.1893 5.18984 17.9009 5.89869 17.4283 6.44329C17.2108 5.87066 16.7575 5.41365 16.1926 5.18802C16.4673 4.90799 16.6376 4.52568 16.6376 4.10367C16.6376 3.24813 15.9415 2.552 15.0859 2.552C14.2304 2.552 13.5343 3.24813 13.5343 4.10367C13.5343 4.52568 13.7046 4.90799 13.9793 5.18802C13.4144 5.41365 12.961 5.87066 12.7436 6.44329C12.271 5.89869 11.9826 5.18984 11.9826 4.414C11.9826 2.70277 13.3747 1.31067 15.0859 1.31067ZM1.74161 8.75867C1.74161 7.04744 3.13371 5.65534 4.84494 5.65534C6.55617 5.65534 7.94828 7.04744 7.94828 8.75867C7.94828 9.53693 7.65809 10.2476 7.18305 10.793C6.96636 10.2182 6.51207 9.75892 5.94565 9.53268C6.22008 9.25266 6.3904 8.87035 6.3904 8.44834C6.3904 7.5928 5.69427 6.89667 4.83873 6.89667C3.98319 6.89667 3.28706 7.5928 3.28706 8.44834C3.28706 8.87035 3.45738 9.25266 3.73211 9.53268C3.16887 9.75725 2.7161 10.2126 2.49789 10.783C2.028 10.239 1.74161 9.53238 1.74161 8.75867ZM3.90773 8.44834C3.90773 7.9351 4.3255 7.51734 4.83873 7.51734C5.35196 7.51734 5.76973 7.9351 5.76973 8.44834C5.76973 8.96157 5.35196 9.37934 4.83873 9.37934C4.3255 9.37934 3.90773 8.96157 3.90773 8.44834ZM3.01219 11.2571C3.15205 10.5413 3.78393 10 4.5284 10H5.14906C5.89641 10 6.53041 10.5452 6.66694 11.2653C6.15461 11.6388 5.52607 11.862 4.84494 11.862C4.15881 11.862 3.52633 11.6355 3.01219 11.2571ZM9.21885 18.0844C9.35872 17.3686 9.9906 16.8273 10.7351 16.8273H11.3557C12.1031 16.8273 12.7371 17.3725 12.8736 18.0926C12.3613 18.4661 11.7327 18.6893 11.0516 18.6893C10.3655 18.6893 9.733 18.4628 9.21885 18.0844ZM11.0454 16.2067C10.5322 16.2067 10.1144 15.7889 10.1144 15.2757C10.1144 14.7624 10.5322 14.3447 11.0454 14.3447C11.5586 14.3447 11.9764 14.7624 11.9764 15.2757C11.9764 15.7889 11.5586 16.2067 11.0454 16.2067ZM14.1549 15.586C14.1549 16.3643 13.8648 17.0749 13.3897 17.6203C13.173 17.0455 12.7187 16.5863 12.1523 16.36C12.4267 16.08 12.5971 15.6977 12.5971 15.2757C12.5971 14.4201 11.9009 13.724 11.0454 13.724C10.1899 13.724 9.49373 14.4201 9.49373 15.2757C9.49373 15.6977 9.66405 16.08 9.93877 16.36C9.37554 16.5846 8.92276 17.0399 8.70456 17.6103C8.23467 17.0663 7.94828 16.3597 7.94828 15.586C7.94828 13.8748 9.34038 12.4827 11.0516 12.4827C12.7628 12.4827 14.1549 13.8748 14.1549 15.586ZM12.0196 11.9941C11.7105 11.9108 11.3868 11.862 11.0516 11.862C10.2 11.862 9.41675 12.1525 8.78866 12.6354L7.56718 11.2916C8.18663 10.6263 8.56894 9.7374 8.56894 8.75867C8.56894 8.35211 8.50136 7.96177 8.38029 7.59522L11.7933 6.14872C12.1757 6.87152 12.7892 7.45157 13.5346 7.79509L12.0196 11.9941Z" fill="#D8AC7A"/>
</svg>
