<svg width="17" height="19" viewBox="0 0 17 19" fill="none" xmlns="http://www.w3.org/2000/svg">
<path d="M14.1778 0H3.70183C2.47782 0.000554167 1.48558 0.992651 1.48517 2.21667V3.17427H0.443333C0.198392 3.17427 0 3.3728 0 3.6176C0 3.8624 0.198392 4.06093 0.443333 4.06093H1.48059V6.9692H0.443333C0.198392 6.9692 0 7.16759 0 7.41253C0 7.65734 0.198392 7.85587 0.443333 7.85587H1.48059V10.7641H0.443333C0.198392 10.7641 0 10.9627 0 11.2075C0 11.4524 0.198392 11.6508 0.443333 11.6508H1.48059V14.5591H0.443333C0.198392 14.5591 0 14.7576 0 15.0024C0 15.2472 0.198392 15.4457 0.443333 15.4457H1.48059V16.4033C1.48115 17.6273 2.47325 18.6194 3.69726 18.62H14.1732C15.3972 18.6194 16.3896 17.6273 16.3899 16.4033V2.21667C16.3917 0.993482 15.401 0.00083125 14.1778 0ZM15.5078 16.4033C15.5056 17.1369 14.9114 17.7313 14.1778 17.7333H3.70183C2.96826 17.7313 2.37391 17.1369 2.37183 16.4033V15.4457H3.40909C3.65404 15.4457 3.85243 15.2472 3.85243 15.0024C3.85243 14.7576 3.65404 14.5591 3.40909 14.5591H2.37183V11.6508H3.40909C3.65404 11.6508 3.85243 11.4524 3.85243 11.2075C3.85243 10.9627 3.65404 10.7641 3.40909 10.7641H2.37183V7.85587H3.40909C3.65404 7.85587 3.85243 7.65734 3.85243 7.41253C3.85243 7.16759 3.65404 6.9692 3.40909 6.9692H2.37183V4.06093H3.40909C3.65404 4.06093 3.85243 3.8624 3.85243 3.6176C3.85243 3.3728 3.65404 3.17427 3.40909 3.17427H2.37183V2.21667C2.37391 1.48309 2.96826 0.888745 3.70183 0.886667H14.1778C14.9114 0.888745 15.5056 1.48309 15.5078 2.21667V16.4033Z" fill="#D8AC7A"/>
<path d="M8.93758 9.18144C10.125 9.18144 11.0877 8.21885 11.0877 7.03127C11.0877 5.84369 10.125 4.8811 8.93758 4.8811C7.75 4.8811 6.78741 5.84369 6.78741 7.03127C6.78852 8.2183 7.75042 9.18033 8.93758 9.18144ZM8.93758 5.76334C9.63528 5.76334 10.2011 6.32914 10.2011 7.02684C10.2011 7.72453 9.63528 8.29034 8.93758 8.29034C8.23975 8.29034 7.67408 7.72453 7.67408 7.02684C7.67533 6.3297 8.24016 5.76458 8.93758 5.76334Z" fill="#D8AC7A"/>
<path d="M8.93762 9.89519C7.09335 9.89519 5.64795 11.3892 5.64795 13.3C5.64864 13.5445 5.84676 13.7426 6.09128 13.7433H11.7838C12.0283 13.7426 12.2265 13.5445 12.2272 13.3C12.2272 11.3892 10.7817 9.89519 8.93762 9.89519ZM6.57008 12.8567C6.76085 11.6464 7.71402 10.7819 8.93762 10.7819C10.1611 10.7819 11.1188 11.6464 11.305 12.8567H6.57008Z" fill="#D8AC7A"/>
</svg>
