<svg width="16" height="15" viewBox="0 0 16 15" fill="none" xmlns="http://www.w3.org/2000/svg">
<path d="M7.18613 0.774127C7.49414 -0.128685 8.771 -0.128687 9.079 0.774124L10.259 4.23272C10.3971 4.63765 10.7776 4.90983 11.2054 4.90983H14.916C15.8965 4.90983 16.2913 6.17425 15.485 6.73216L12.5684 8.75034C12.2007 9.00477 12.0465 9.47237 12.1909 9.89556L13.3246 13.2184C13.636 14.1312 12.6022 14.9124 11.8091 14.3636L8.70158 12.2134C8.35922 11.9765 7.90592 11.9765 7.56356 12.2134L4.45601 14.3636C3.66291 14.9124 2.62915 14.1312 2.94057 13.2184L4.07421 9.89556C4.21859 9.47237 4.06448 9.00477 3.69678 8.75034L0.780112 6.73216C-0.026181 6.17425 0.368624 4.90983 1.34912 4.90983H5.05974C5.48758 4.90983 5.86803 4.63765 6.00618 4.23272L7.18613 0.774127Z" fill="#386060"/>
</svg>
